<svg width="862" height="216" viewBox="0 0 862 216" fill="none" xmlns="http://www.w3.org/2000/svg">
<g clip-path="url(#clip0_1143_1117)">
<path d="M215.465 108.05C215.465 167.379 167.167 215.573 107.709 215.573C48.251 215.573 0 167.333 0 108.05C0 48.7668 48.2979 0.526367 107.756 0.526367C167.214 0.526367 215.512 48.7201 215.512 108.05H215.465ZM180.437 45.5383C151.787 74.6417 122.573 103.277 93.923 132.381C113.57 151.986 133.734 172.105 153.897 192.225C206.415 164.666 221.279 92.1412 180.437 45.5383ZM124.168 84.1869C123.652 83.6722 123.089 83.1107 122.573 82.596C103.489 63.5525 83.8414 43.9475 64.7098 24.8572C63.1155 23.2663 61.5212 23.2663 59.9269 24.3425C47.7352 31.7353 37.0909 40.7658 29.1663 52.4165C26.4935 55.5982 24.3834 59.2946 22.7891 62.4763C44.0308 83.1107 64.194 103.792 84.3572 123.397C97.6274 110.155 110.898 97.4284 124.168 84.1869ZM75.3541 132.381C56.2694 113.337 36.622 93.732 17.4904 74.6417C3.7044 100.61 13.786 154.091 36.0593 171.544C49.3295 158.302 62.5997 145.061 75.3541 132.334V132.381ZM74.8383 17.979C93.923 37.0226 113.57 56.6276 132.702 75.7179C145.456 62.991 158.727 49.7494 171.434 37.0694C147.52 13.2532 107.193 5.29895 74.8383 17.979ZM84.9199 140.85C71.6497 154.091 58.3795 167.333 45.1093 180.574C62.5997 195.407 82.8098 203.361 106.162 203.876C118.353 204.39 130.592 202.285 141.705 197.512C122.62 178.469 103.489 159.378 84.9199 140.85Z" fill="#FF7EFA"/>
<path d="M271.5 95.3229C271.5 93.3109 270.422 92.3751 268.546 92.3751H263.013V81.1923H275.298C281.347 81.1923 283.645 83.7657 283.645 88.0704C283.645 90.0824 283.504 91.72 283.504 91.72H283.786C283.786 91.72 289.459 79.6014 306.434 79.6014C324.768 79.6014 336.491 94.1063 336.491 115.255C336.491 136.404 323.268 150.909 305.496 150.909C290.397 150.909 284.63 140.007 284.63 140.007H284.348C284.348 140.007 284.63 142.44 284.63 145.903V176.176H271.547V95.3697L271.5 95.3229ZM303.433 139.68C314.218 139.68 323.127 130.79 323.127 115.349C323.127 99.9083 315.156 91.0182 303.855 91.0182C293.727 91.0182 284.161 98.1303 284.161 115.489C284.161 127.608 290.772 139.68 303.433 139.68Z" fill="#6A6A6A"/>
<path d="M352.622 95.3229C352.622 93.3109 351.544 92.3751 349.668 92.3751H344.135V81.1923H356.936C363.126 81.1923 365.705 83.7657 365.705 89.5209V121.806C365.705 131.211 367.58 138.744 378.365 138.744C392.386 138.744 400.592 126.485 400.592 113.056V81.1923H413.674V135.094C413.674 137.106 414.753 138.042 416.628 138.042H422.162V149.225H409.642C403.827 149.225 401.014 146.558 401.014 141.692V139.118C401.014 136.966 401.154 135.235 401.154 135.235H400.873C398.06 141.972 389.291 150.816 375.786 150.816C360.406 150.816 352.622 142.768 352.622 124.707V95.2761V95.3229Z" fill="#6A6A6A"/>
<path d="M435.995 68.4186C435.995 66.4066 434.916 65.4708 433.04 65.4708H427.507V54.288H440.449C446.498 54.288 449.077 56.8615 449.077 62.8974V85.0758C449.077 88.3043 448.796 90.7374 448.796 90.7374H449.077C449.077 90.7374 454.986 79.5546 471.022 79.5546C489.357 79.5546 500.939 94.0595 500.939 115.209C500.939 136.358 487.856 150.863 469.944 150.863C454.704 150.863 448.515 139.446 448.515 139.446H448.233C448.233 139.446 448.515 141.598 448.515 144.546V149.272H435.995V68.4186ZM468.068 139.68C478.853 139.68 487.762 130.79 487.762 115.349C487.762 99.9083 479.791 91.0182 468.35 91.0182C458.221 91.0182 448.796 98.1302 448.796 115.489C448.796 127.608 455.126 139.68 468.068 139.68Z" fill="#6A6A6A"/>
<path d="M515.897 68.4186C515.897 66.4066 514.819 65.4708 512.943 65.4708H507.41V54.288H520.352C526.401 54.288 528.98 56.8615 528.98 62.8974V135.094C528.98 137.106 530.058 138.042 531.934 138.042H537.467V149.225H524.525C518.476 149.225 515.897 146.651 515.897 140.616V68.4186Z" fill="#6A6A6A"/>
<path d="M552.941 95.3229C552.941 93.3109 551.862 92.3751 549.987 92.3751H544.454V81.1923H557.255C563.304 81.1923 565.883 83.7658 565.883 89.8017V135.094C565.883 137.106 566.961 138.042 568.837 138.042H574.37V149.225H561.569C555.52 149.225 552.941 146.652 552.941 140.616V95.3229ZM553.222 54.3349H564.945V67.904H553.222V54.3349Z" fill="#6A6A6A"/>
<path d="M619.338 79.6014C627.544 79.6014 643.862 82.9703 643.862 94.5274V101.499H631.999V97.7559C631.999 92.9365 624.309 90.7842 619.338 90.7842C606.021 90.7842 596.033 100.75 596.033 115.115C596.033 130.556 607.334 139.305 620.042 139.305C632.749 139.305 641.19 129.901 641.19 129.901L646.863 139.165C646.863 139.165 637.157 150.863 619.104 150.863C597.675 150.863 582.716 135.656 582.716 115.209C582.716 94.7613 597.393 79.5546 619.385 79.5546L619.338 79.6014Z" fill="#6A6A6A"/>
<path d="M695.724 106.88H698.679V106.225C698.679 94.2467 694.224 89.942 683.58 89.942C680.344 89.942 672.373 90.7374 672.373 95.1825V99.066H660.087V92.3283C660.087 81.1455 677.062 79.5546 683.673 79.5546C705.759 79.5546 711.714 91.1117 711.714 106.178V135.094C711.714 137.106 712.793 138.042 714.668 138.042H720.202V149.225H707.916C701.867 149.225 699.429 146.277 699.429 141.411C699.429 139.118 699.71 137.387 699.71 137.387H699.429C699.429 137.387 694.036 150.816 677.718 150.816C665.995 150.816 654.554 143.704 654.554 130.088C654.554 108.19 684.189 106.833 695.631 106.833L695.724 106.88ZM680.625 140.382C691.692 140.382 698.819 128.824 698.819 118.718V116.425H695.443C685.596 116.425 667.824 116.94 667.824 129.48C667.824 135.001 671.997 140.382 680.625 140.382Z" fill="#6A6A6A"/>
<path d="M732.394 135.375H745.711V149.225H732.394V135.375Z" fill="#6A6A6A"/>
<path d="M766.436 68.4186C766.436 66.4066 765.358 65.4708 763.482 65.4708H757.949V54.288H770.891C776.94 54.288 779.519 56.8615 779.519 62.8974V135.094C779.519 137.106 780.597 138.042 782.473 138.042H788.006V149.225H775.064C769.015 149.225 766.436 146.651 766.436 140.616V68.4186Z" fill="#6A6A6A"/>
<path d="M837.476 106.88H840.43V106.225C840.43 94.2467 835.976 89.942 825.331 89.942C822.096 89.942 814.124 90.7374 814.124 95.1825V99.066H801.839V92.3283C801.839 81.1455 818.813 79.5546 825.425 79.5546C847.511 79.5546 853.466 91.1117 853.466 106.178V135.094C853.466 137.106 854.545 138.042 856.42 138.042H861.953V149.225H849.668C843.619 149.225 841.181 146.277 841.181 141.411C841.181 139.118 841.462 137.387 841.462 137.387H841.181C841.181 137.387 835.788 150.816 819.47 150.816C807.747 150.816 796.306 143.704 796.306 130.088C796.306 108.19 825.941 106.833 837.382 106.833L837.476 106.88ZM822.377 140.382C833.444 140.382 840.571 128.824 840.571 118.718V116.425H837.195C827.348 116.425 809.576 116.94 809.576 129.48C809.576 135.001 813.749 140.382 822.377 140.382Z" fill="#6A6A6A"/>
</g>
<defs>
<clipPath id="clip0_1143_1117">
<rect width="862" height="215" fill="white" transform="translate(0 0.526367)"/>
</clipPath>
</defs>
</svg>
