<?xml version="1.0" encoding="utf-8"?>
<!-- Generator: Adobe Illustrator 28.2.0, SVG Export Plug-In . SVG Version: 6.00 Build 0)  -->
<svg version="1.1" id="Layer_1" xmlns="http://www.w3.org/2000/svg" xmlns:xlink="http://www.w3.org/1999/xlink" x="0px" y="0px"
	 viewBox="0 0 169.8 32.5" style="enable-background:new 0 0 169.8 32.5;" xml:space="preserve" width="118" height="21">
<style type="text/css">
	.st0{fill:#002244;}
</style>
<g>
	<rect x="26.8" y="11" class="st0" width="4.3" height="19.4"/>
	<path class="st0" d="M59.5,12.7c-0.6-0.7-1.4-1.2-2.4-1.6c-1-0.4-2.1-0.5-3.5-0.5c-1.2,0-2.3,0.1-3.3,0.3c-1,0.2-1.8,0.4-2.2,0.6
		l-0.4,0.2l0.5,3.8l0.6-0.3c0.4-0.1,0.9-0.3,1.7-0.4c0.8-0.1,1.7-0.2,2.7-0.2c0.8,0,1.4,0.1,1.8,0.3c0.5,0.2,0.8,0.5,1.1,0.8
		c0.3,0.3,0.4,0.8,0.5,1.2c0.1,0.5,0.2,1,0.2,1.5v0.3c-0.2,0-0.4-0.1-0.7-0.1c-0.3-0.1-0.7-0.1-1-0.1c-1.5-0.2-2.9,0-4.2,0.3
		c-1,0.2-1.9,0.6-2.6,1.1c-0.8,0.5-1.4,1.1-1.9,2c-0.5,0.8-0.7,1.8-0.7,2.9c0,1.1,0.2,2.1,0.6,2.9c0.4,0.8,0.9,1.5,1.7,2
		c0.7,0.5,1.5,0.9,2.4,1.1c0.9,0.2,1.9,0.3,3,0.3c0.7,0,1.5,0,2.2-0.1c0.7-0.1,1.4-0.1,2.1-0.2c0.6-0.1,1.2-0.1,1.7-0.2l1.6-0.3
		V18.1c0-1.1-0.1-2.1-0.4-3C60.6,14.2,60.1,13.3,59.5,12.7 M56.9,22.1v4.7c-0.3,0-0.6,0.1-1,0.1c-0.6,0-1.3,0.1-2,0.1
		c-1.2,0-2.1-0.2-2.8-0.6c-0.6-0.4-0.9-1-0.9-2c0-0.5,0.1-0.9,0.3-1.2c0.3-0.3,0.6-0.6,1-0.8c0.4-0.2,0.9-0.3,1.4-0.4
		c0.5-0.1,1-0.1,1.5-0.1c0.7,0,1.3,0,1.8,0.1C56.5,22,56.8,22.1,56.9,22.1"/>
	<path class="st0" d="M101.9,14.4c-0.7-0.8-1.6-1.5-2.7-1.9c-1-0.4-2.2-0.7-3.4-0.7c-1.2,0-2.3,0.2-3.4,0.7c-1,0.4-1.9,1.1-2.7,1.9
		c-0.7,0.8-1.3,1.8-1.7,3c-0.4,1.2-0.6,2.5-0.6,3.9c0,1.4,0.2,2.7,0.6,3.9c0.4,1.1,1,2.1,1.7,3c0.7,0.8,1.6,1.5,2.7,1.9
		c1,0.4,2.2,0.7,3.4,0.7c1.2,0,2.3-0.2,3.4-0.7c1-0.4,1.9-1.1,2.7-1.9c0.7-0.8,1.3-1.8,1.7-3c0.4-1.1,0.6-2.4,0.6-3.9
		c0-1.4-0.2-2.7-0.6-3.9C103.2,16.2,102.6,15.2,101.9,14.4 M99.8,26.3c-1,1.3-2.3,1.9-4,1.9c-1.7,0-3-0.6-4-1.9
		c-1-1.2-1.4-2.9-1.4-5.1c0-2.1,0.5-3.8,1.4-5.1c1-1.3,2.3-1.9,4-1.9c1.7,0,3,0.6,4,1.9c1,1.2,1.4,2.9,1.4,5.1
		C101.2,23.4,100.8,25.1,99.8,26.3"/>
	<path class="st0" d="M115.2,28.1c-0.4,0-0.8,0-1.1,0c-1.7,0-3-0.5-3.7-1.5c-0.7-1-1.1-2.7-1.1-4.9v-9.4h-2.8v10.1
		c0,1.2,0.1,2.3,0.4,3.3c0.2,1,0.7,1.9,1.2,2.6c0.6,0.7,1.3,1.3,2.2,1.7c0.9,0.4,2.1,0.6,3.5,0.6c1.6,0,3-0.1,4.2-0.3
		c1.1-0.2,2.1-0.4,2.8-0.6V12.3h-2.8v15.4l-0.1,0.1c-0.1,0.1-0.3,0.1-0.6,0.1c-0.3,0-0.6,0.1-0.9,0.1
		C115.9,28,115.5,28.1,115.2,28.1"/>
	<path class="st0" d="M133.7,12.3c-0.3-0.1-0.6-0.1-1-0.2c-0.3-0.1-0.7-0.1-1.1-0.1c-0.4,0-0.7-0.1-0.9-0.1c-1.4,0-2.7,0.1-3.8,0.4
		c-1.1,0.2-2,0.5-2.7,0.7v17.2h2.8V14.8l0.2,0c0.2,0,0.6-0.1,1.2-0.3c0.6-0.1,1.2-0.2,1.9-0.2c1,0,1.7,0.1,2.4,0.2
		c0.4,0.1,0.8,0.2,1.1,0.3l0.5-2.4C134,12.4,133.8,12.3,133.7,12.3"/>
	<path class="st0" d="M145.7,27.9c-0.7,0.2-1.5,0.3-2.4,0.3c-1.1,0-2.1-0.2-2.8-0.5c-0.8-0.3-1.4-0.8-1.9-1.4
		c-0.5-0.6-0.9-1.3-1.1-2.2c-0.2-0.8-0.3-1.8-0.3-2.8c0-2.3,0.5-4,1.5-5.2c1-1.2,2.5-1.8,4.4-1.8c0.7,0,1.5,0.1,2.1,0.2
		c0.6,0.1,1.1,0.3,1.5,0.5l0.6-2.3c-0.7-0.3-1.4-0.5-2.1-0.6c-0.8-0.1-1.6-0.2-2.4-0.2c-1.3,0-2.5,0.2-3.6,0.7c-1.1,0.5-2,1.1-2.7,2
		c-0.7,0.8-1.3,1.8-1.7,3c-0.4,1.1-0.6,2.4-0.6,3.8c0,1.4,0.2,2.7,0.6,3.8c0.4,1.1,0.9,2.1,1.7,2.9c0.7,0.8,1.7,1.5,2.7,1.9
		c1.4,0.6,3.2,0.8,5.2,0.6c0.5-0.1,1-0.1,1.4-0.2c0.4-0.1,0.8-0.2,1.2-0.3c0.3-0.1,0.5-0.2,0.6-0.2l-0.4-2.3
		C146.7,27.6,146.2,27.8,145.7,27.9"/>
	<path class="st0" d="M155.9,11.8c-1,0-2,0.2-3,0.6c-1,0.4-1.8,1-2.6,1.7c-0.7,0.8-1.4,1.8-1.8,2.9c-0.5,1.2-0.7,2.6-0.7,4.2
		c0,1.4,0.2,2.6,0.5,3.8c0.4,1.1,0.9,2.1,1.6,2.9c0.7,0.8,1.7,1.5,2.8,1.9c1.1,0.5,2.5,0.7,4.1,0.7c1.2,0,2.4-0.1,3.3-0.3
		c0.9-0.2,1.5-0.4,1.9-0.6l-0.4-2.3c-0.4,0.2-0.9,0.3-1.5,0.5c-0.8,0.2-1.8,0.3-3,0.3c-2.1,0-3.7-0.5-4.7-1.6c-1-1-1.6-2.5-1.7-4.5
		l0-0.2h12.6c0-0.1,0-0.3,0-0.4V21c0-3.1-0.6-5.4-1.9-6.9C160.1,12.6,158.3,11.8,155.9,11.8 M160.4,19.7h-9.6l0-0.3
		c0.1-0.7,0.2-1.3,0.5-1.9c0.2-0.6,0.6-1.2,1-1.7c0.4-0.5,0.9-0.9,1.5-1.2c0.6-0.3,1.3-0.5,2.1-0.5c1.4,0,2.5,0.5,3.3,1.5
		c0.8,1,1.2,2.3,1.2,3.8L160.4,19.7z"/>
	<path class="st0" d="M44.2,26.3c-0.2,0.1-0.3,0.1-0.6,0.2c-0.5,0.2-1.3,0.3-2.2,0.3c-0.5,0-0.9-0.1-1.3-0.2
		c-0.3-0.1-0.6-0.3-0.8-0.6c-0.2-0.3-0.4-0.7-0.5-1.2c-0.1-0.6-0.2-1.3-0.2-2.2v-7.9h6.9V11h-6.9V6.9l-4.3,0.7v15.1
		c0,1.3,0.1,2.4,0.3,3.3c0.2,1,0.6,1.9,1.1,2.6c0.6,0.7,1.3,1.2,2.2,1.6c0.9,0.3,2,0.5,3.3,0.5c1.1,0,2.1-0.1,3-0.4
		c0.8-0.2,1.4-0.4,1.7-0.6c-0.4-0.5-0.8-1-1.1-1.7C44.5,27.6,44.3,27,44.2,26.3"/>
	<path class="st0" d="M22.3,5.1c-0.6,1.7-0.9,3.2-1.5,5c-0.6,1.8-1.2,3.6-1.9,5.3c-0.6,1.7-1.3,3.4-1.9,5c-0.6,1.6-1.2,3.1-1.8,4.5
		c-0.6-1.4-1.2-2.8-1.8-4.5c-0.6-1.6-1.2-3.3-1.9-5c-0.6-1.7-1.2-3.5-1.9-5.3C9.3,8.6,7.9,4.8,7.1,2.6L1.7,1.7
		c1.6,4.6,4.4,12.2,6,16.2c1.7,4.4,3.5,8.5,5.3,12.5h4.5c1.9-4,3.6-8.2,5.3-12.5c1.5-3.8,2.9-8.1,4.3-12L22.3,5.1z"/>
	<polygon class="st0" points="63.5,2.8 63.5,30.4 67.9,30.4 67.9,2.1 	"/>
	<path class="st0" d="M85.4,21.1c-0.4-0.8-0.9-1.5-1.5-2c-0.6-0.5-1.4-1-2.3-1.4c-0.8-0.4-1.8-0.8-2.7-1.2c-0.8-0.3-1.5-0.6-2.2-0.9
		c-0.7-0.3-1.2-0.6-1.7-1c-0.5-0.3-0.8-0.8-1.1-1.2c-0.3-0.5-0.4-1.1-0.4-1.8c0-0.7,0.1-1.3,0.4-1.7c0.2-0.5,0.6-0.9,1-1.2
		c0.4-0.3,1-0.5,1.6-0.7c0.6-0.1,1.3-0.2,2-0.2c1.1,0,2.1,0.1,3,0.4c0.9,0.3,1.7,0.6,2.4,1.1l0.2,0.2l1-2.4L85,6.9
		c-0.3-0.2-0.7-0.4-1.2-0.6c-0.4-0.2-1-0.4-1.5-0.5c-0.5-0.2-1.1-0.3-1.8-0.4c-0.6-0.1-1.3-0.1-1.9-0.1c-2.5,0-4.4,0.6-5.8,1.6
		c-1.4,1.1-2.1,2.7-2.1,4.9c0,0.9,0.2,1.8,0.5,2.4c0.3,0.7,0.7,1.3,1.3,1.9c0.6,0.5,1.3,1,2.1,1.4c0.8,0.4,1.7,0.8,2.7,1.2
		c0.8,0.3,1.5,0.6,2.3,0.9c0.7,0.3,1.3,0.6,1.9,1c0.5,0.4,1,0.9,1.3,1.4c0.3,0.6,0.5,1.3,0.5,2.1c0,1.5-0.5,2.5-1.5,3.1
		c-1,0.7-2.4,1-4.2,1c-0.8,0-1.5-0.1-2.2-0.2c-0.7-0.1-1.2-0.3-1.8-0.4c-0.5-0.2-1-0.3-1.4-0.5c-0.4-0.2-0.7-0.3-0.9-0.5l-0.2-0.1
		L69.9,29l0.2,0.1c0.2,0.1,0.6,0.3,1,0.5c0.4,0.2,0.9,0.4,1.6,0.5c0.6,0.2,1.3,0.3,2.1,0.4c0.8,0.1,1.6,0.2,2.6,0.2
		c2.6,0,4.7-0.6,6.3-1.7c1.6-1.1,2.4-2.8,2.4-5.1C85.9,22.9,85.7,21.9,85.4,21.1"/>
	<path class="st0" d="M168.2,14.1c0,0.4-0.1,0.7-0.2,1c-0.1,0.3-0.3,0.5-0.5,0.7c-0.2,0.2-0.4,0.4-0.7,0.5c-0.3,0.1-0.6,0.2-0.9,0.2
		c-0.3,0-0.6-0.1-0.8-0.2c-0.3-0.1-0.5-0.3-0.7-0.5c-0.2-0.2-0.4-0.4-0.5-0.7c-0.1-0.3-0.2-0.6-0.2-1c0-0.4,0.1-0.7,0.2-1
		c0.1-0.3,0.3-0.5,0.5-0.7c0.2-0.2,0.4-0.4,0.7-0.5c0.3-0.1,0.6-0.2,0.8-0.2c0.3,0,0.6,0.1,0.9,0.2c0.3,0.1,0.5,0.3,0.7,0.5
		c0.2,0.2,0.4,0.4,0.5,0.7C168.1,13.4,168.2,13.7,168.2,14.1 M167.6,14.1c0-0.3,0-0.5-0.1-0.7c-0.1-0.2-0.2-0.4-0.3-0.6
		c-0.1-0.2-0.3-0.3-0.5-0.4c-0.2-0.1-0.4-0.1-0.7-0.1c-0.2,0-0.5,0-0.7,0.1c-0.2,0.1-0.4,0.2-0.5,0.4c-0.1,0.2-0.3,0.4-0.3,0.6
		c-0.1,0.2-0.1,0.5-0.1,0.7c0,0.3,0,0.5,0.1,0.7c0.1,0.2,0.2,0.4,0.3,0.6c0.1,0.2,0.3,0.3,0.5,0.4c0.2,0.1,0.4,0.1,0.7,0.1
		c0.2,0,0.5,0,0.7-0.1c0.2-0.1,0.4-0.2,0.5-0.4c0.1-0.2,0.3-0.4,0.3-0.6C167.5,14.6,167.6,14.4,167.6,14.1 M166.4,15.3
		c-0.1-0.2-0.2-0.3-0.3-0.5c-0.1-0.2-0.2-0.3-0.2-0.4h-0.4v0.9H165v-2.4c0.1,0,0.3-0.1,0.4-0.1c0.1,0,0.2,0,0.3,0
		c0.4,0,0.6,0.1,0.8,0.2c0.2,0.1,0.3,0.3,0.3,0.6c0,0.1,0,0.3-0.1,0.4c-0.1,0.1-0.2,0.2-0.3,0.3c0.1,0.1,0.2,0.3,0.3,0.4
		c0.1,0.2,0.2,0.4,0.3,0.6H166.4z M165.6,14h0.2c0.2,0,0.3,0,0.4-0.1c0.1,0,0.1-0.1,0.1-0.3c0-0.1,0-0.2-0.1-0.3
		c-0.1-0.1-0.2-0.1-0.4-0.1h-0.1c0,0-0.1,0-0.1,0V14z"/>
</g>
</svg>

